<svg id="Layer_1" data-name="Layer 1" xmlns="http://www.w3.org/2000/svg" viewBox="0 0 24.69 20.66"><defs><style>.cls-1{fill:#231f20;}</style></defs><path class="cls-1" d="M19.05,20.66c-2.68,0-4.61-1.9-4.61-4.9a4.33,4.33,0,0,1,4.61-4.39,5.31,5.31,0,0,1,3.24,1.28l-2.9,4,.24-5.17c0-3.56-1.82-5.88-5.42-7.64L16.15,0c5.75,2.83,8.54,7.17,8.54,12.83C24.69,17.78,22.74,20.66,19.05,20.66Zm-14.21,0c-2.68,0-4.61-1.9-4.61-4.9a4.33,4.33,0,0,1,4.61-4.39,5.26,5.26,0,0,1,3.24,1.28l-2.9,4,.24-5.17C5.42,7.93,3.61,5.61,0,3.85L2,0c5.75,2.83,8.53,7.17,8.53,12.83C10.48,17.78,8.54,20.66,4.84,20.66Z"/></svg>