<svg id="Layer_1" data-name="Layer 1" xmlns="http://www.w3.org/2000/svg" viewBox="0 0 24.69 20.66"><defs><style>.cls-1{fill:#231f20;}</style></defs><path class="cls-1" d="M0,12.83C0,7.17,2.79,2.83,8.54,0l1.94,3.85c-3.6,1.76-5.42,4.08-5.42,7.64l.24,5.17-2.9-4a5.31,5.31,0,0,1,3.24-1.28,4.33,4.33,0,0,1,4.61,4.39c0,3-1.93,4.9-4.61,4.9C2,20.66,0,17.78,0,12.83Zm14.21,0c0-5.66,2.78-10,8.53-12.83l2,3.85c-3.61,1.76-5.42,4.08-5.42,7.64l.24,5.17-2.9-4a5.26,5.26,0,0,1,3.24-1.28,4.33,4.33,0,0,1,4.61,4.39c0,3-1.93,4.9-4.61,4.9C16.15,20.66,14.21,17.78,14.21,12.83Z"/></svg>